# xmcd
#
# Track frame offsets:
# 150
# 18340
# 41617
# 57680
# 75315
# 88242
# 98737
# 124827
# 141015
# 163990
#
# Disc length: 2514 seconds
#
# Revision: 0
# Processed by: cddbd v1.5PL3 Copyright (c) Steve Scherf et al.
# Submitted via: Audion 3.0.2 (http://www.panic.com/audion/)
#
DISCID=8209d00a
DTITLE=Grand Unified Theory - Grand Unified Theory
DYEAR=1900
DGENRE=
TTITLE0=Unclaimed Song #1
TTITLE1=Epilogue (parts 1 and 2)
TTITLE2=That Beautiful Parade Down Market Street
TTITLE3=The Plane Crash Marks the Time
TTITLE4=A Good Night's Rest
TTITLE5=Unclaimed Song #2
TTITLE6=She Turned Him/on on/Him
TTITLE7=Camera Eyes (a Phone Conversation)
TTITLE8=Remarks Made during the Final Interview
TTITLE9=Return to Zero
EXTD=
EXTT0=
EXTT1=
EXTT2=
EXTT3=
EXTT4=
EXTT5=
EXTT6=
EXTT7=
EXTT8=
EXTT9=
PLAYORDER=
